<svg width="1170" height="497" viewBox="0 0 1170 497" fill="none" xmlns="http://www.w3.org/2000/svg">
<path d="M560 303.777C560 292.635 560.865 282.608 562.596 273.695C564.326 264.781 567.293 256.487 571.496 248.812C575.946 241.136 581.879 233.956 589.296 227.271C596.96 220.338 606.602 213.653 618.221 207.216C628.357 201.769 637.257 197.065 644.921 193.103C652.585 188.894 659.013 185.056 664.204 181.59C669.643 178.124 673.723 174.657 676.442 171.191C679.161 167.477 680.521 163.268 680.521 158.564C680.521 153.612 679.161 149.155 676.442 145.194C673.723 140.985 669.891 137.642 664.946 135.166C660.002 132.691 653.821 131.453 646.404 131.453C640.471 131.453 634.909 132.195 629.717 133.681C624.772 135.166 620.075 137.271 615.625 139.994C611.422 142.718 607.467 145.813 603.758 149.279C600.05 152.498 596.713 155.964 593.746 159.678L562.225 123.282C565.686 119.816 570.26 116.102 575.946 112.14C581.879 107.931 588.801 104.094 596.713 100.627C604.871 96.9133 613.771 93.9422 623.413 91.7139C633.302 89.238 643.809 88 654.934 88C671.745 88 686.084 90.7235 697.95 96.1706C709.817 101.37 718.841 108.674 725.021 118.083C731.449 127.491 734.663 138.509 734.663 151.136C734.663 159.802 733.056 167.477 729.842 174.162C726.628 180.847 722.549 186.79 717.605 191.989C712.66 196.941 707.221 201.398 701.288 205.359C695.602 209.32 690.039 212.787 684.6 215.758C676.936 219.719 670.014 223.433 663.834 226.9C657.653 230.118 652.214 233.461 647.517 236.927C642.82 240.146 638.617 243.488 634.909 246.955C631.447 250.421 628.357 254.382 625.638 258.839H738.742V303.777H560Z" fill="#43C4FF"/>
<path d="M870.927 358V302.663H762.644V258.468L886.873 98.7703H920.619V258.096L958.733 258.468L939.389 281.066L920.619 302.663L898.814 327.371L870.927 358ZM812.335 258.096H876.49V174.162L812.335 258.096Z" fill="#43C4FF"/>
<path d="M1067.56 208.424H947.782L973.258 175.803C979.512 167.795 989.106 163.114 999.267 163.114H1170L1010.37 341.66C1001.07 352.057 987.784 358 973.837 358H939.389L1067.56 208.424Z" fill="#43C4FF"/>
<path d="M51.354 23.304H72.09L85.212 61.374L98.496 23.304H119.07L99.306 75.63L113.886 112.242L146.448 22.98H170.748L124.74 138H105.462L85.212 89.724L65.124 138H45.846L0 22.98H23.976L56.7 112.242L70.956 75.63L51.354 23.304ZM208.4 139.62C201.596 139.62 195.44 138.486 189.932 136.218C184.424 133.842 179.726 130.656 175.838 126.66C171.95 122.556 168.926 117.912 166.766 112.728C164.714 107.436 163.688 101.874 163.688 96.042C163.688 87.942 165.47 80.544 169.034 73.848C172.706 67.152 177.89 61.806 184.586 57.81C191.39 53.706 199.382 51.654 208.562 51.654C217.85 51.654 225.788 53.706 232.376 57.81C238.964 61.806 243.986 67.152 247.442 73.848C251.006 80.436 252.788 87.564 252.788 95.232C252.788 96.528 252.734 97.878 252.626 99.282C252.518 100.578 252.41 101.658 252.302 102.522H186.692C187.124 106.842 188.366 110.622 190.418 113.862C192.578 117.102 195.278 119.586 198.518 121.314C201.866 122.934 205.43 123.744 209.21 123.744C213.53 123.744 217.58 122.718 221.36 120.666C225.248 118.506 227.894 115.698 229.298 112.242L247.928 117.426C245.876 121.746 242.906 125.58 239.018 128.928C235.238 132.276 230.756 134.922 225.572 136.866C220.388 138.702 214.664 139.62 208.4 139.62ZM186.206 88.752H230.594C230.162 84.432 228.92 80.706 226.868 77.574C224.924 74.334 222.332 71.85 219.092 70.122C215.852 68.286 212.234 67.368 208.238 67.368C204.35 67.368 200.786 68.286 197.546 70.122C194.414 71.85 191.822 74.334 189.77 77.574C187.826 80.706 186.638 84.432 186.206 88.752ZM4.05 274.89C4.05 269.382 5.562 264.576 8.586 260.472C11.718 256.26 16.038 253.02 21.546 250.752C27.054 248.484 33.372 247.35 40.5 247.35C44.064 247.35 47.682 247.62 51.354 248.16C55.026 248.7 58.212 249.564 60.912 250.752V246.216C60.912 240.816 59.292 236.658 56.052 233.742C52.92 230.826 48.222 229.368 41.958 229.368C37.314 229.368 32.886 230.178 28.674 231.798C24.462 233.418 20.034 235.794 15.39 238.926L8.424 224.67C14.04 220.998 19.764 218.244 25.596 216.408C31.536 214.572 37.746 213.654 44.226 213.654C56.322 213.654 65.718 216.678 72.414 222.726C79.218 228.774 82.62 237.414 82.62 248.646V275.7C82.62 277.968 82.998 279.588 83.754 280.56C84.618 281.532 85.968 282.126 87.804 282.342V300C85.86 300.324 84.078 300.594 82.458 300.81C80.946 301.026 79.65 301.134 78.57 301.134C74.25 301.134 70.956 300.162 68.688 298.218C66.528 296.274 65.178 293.898 64.638 291.09L64.152 286.716C60.48 291.468 55.89 295.14 50.382 297.732C44.874 300.324 39.258 301.62 33.534 301.62C27.918 301.62 22.842 300.486 18.306 298.218C13.878 295.842 10.368 292.656 7.776 288.66C5.292 284.556 4.05 279.966 4.05 274.89ZM56.862 279.264C58.05 277.968 59.022 276.672 59.778 275.376C60.534 274.08 60.912 272.892 60.912 271.812V263.226C58.32 262.146 55.512 261.336 52.488 260.796C49.464 260.148 46.602 259.824 43.902 259.824C38.286 259.824 33.642 261.066 29.97 263.55C26.406 265.926 24.624 269.112 24.624 273.108C24.624 275.268 25.218 277.32 26.406 279.264C27.594 281.208 29.322 282.774 31.59 283.962C33.858 285.15 36.558 285.744 39.69 285.744C42.93 285.744 46.116 285.15 49.248 283.962C52.38 282.666 54.918 281.1 56.862 279.264ZM102.743 181.74H124.451V272.784C124.451 276.672 125.099 279.318 126.395 280.722C127.691 282.018 129.473 282.666 131.741 282.666C133.469 282.666 135.251 282.45 137.087 282.018C138.923 281.586 140.543 281.046 141.947 280.398L144.863 296.922C141.947 298.326 138.545 299.406 134.657 300.162C130.769 300.918 127.259 301.296 124.127 301.296C117.323 301.296 112.031 299.514 108.251 295.95C104.579 292.278 102.743 287.094 102.743 280.398V181.74ZM255.35 215.112H275.924L240.446 300H222.302L208.046 263.55L194.114 300H175.808L140.492 215.112H160.904L186.176 279.264L196.058 251.562L181.316 215.274H199.298L208.046 241.194L216.956 215.274H234.938L220.196 251.562L230.24 279.264L255.35 215.112ZM278.058 274.89C278.058 269.382 279.57 264.576 282.594 260.472C285.726 256.26 290.046 253.02 295.554 250.752C301.062 248.484 307.38 247.35 314.508 247.35C318.072 247.35 321.69 247.62 325.362 248.16C329.034 248.7 332.22 249.564 334.92 250.752V246.216C334.92 240.816 333.3 236.658 330.06 233.742C326.928 230.826 322.23 229.368 315.966 229.368C311.322 229.368 306.894 230.178 302.682 231.798C298.47 233.418 294.042 235.794 289.398 238.926L282.432 224.67C288.048 220.998 293.772 218.244 299.604 216.408C305.544 214.572 311.754 213.654 318.234 213.654C330.33 213.654 339.726 216.678 346.422 222.726C353.226 228.774 356.628 237.414 356.628 248.646V275.7C356.628 277.968 357.006 279.588 357.762 280.56C358.626 281.532 359.976 282.126 361.812 282.342V300C359.868 300.324 358.086 300.594 356.466 300.81C354.954 301.026 353.658 301.134 352.578 301.134C348.258 301.134 344.964 300.162 342.696 298.218C340.536 296.274 339.186 293.898 338.646 291.09L338.16 286.716C334.488 291.468 329.898 295.14 324.39 297.732C318.882 300.324 313.266 301.62 307.542 301.62C301.926 301.62 296.85 300.486 292.314 298.218C287.886 295.842 284.376 292.656 281.784 288.66C279.3 284.556 278.058 279.966 278.058 274.89ZM330.87 279.264C332.058 277.968 333.03 276.672 333.786 275.376C334.542 274.08 334.92 272.892 334.92 271.812V263.226C332.328 262.146 329.52 261.336 326.496 260.796C323.472 260.148 320.61 259.824 317.91 259.824C312.294 259.824 307.65 261.066 303.978 263.55C300.414 265.926 298.632 269.112 298.632 273.108C298.632 275.268 299.226 277.32 300.414 279.264C301.602 281.208 303.33 282.774 305.598 283.962C307.866 285.15 310.566 285.744 313.698 285.744C316.938 285.744 320.124 285.15 323.256 283.962C326.388 282.666 328.926 281.1 330.87 279.264ZM375.531 316.524C377.475 316.956 379.257 317.334 380.877 317.658C382.605 317.982 384.063 318.144 385.251 318.144C387.303 318.144 388.977 317.604 390.273 316.524C391.677 315.552 393.027 313.716 394.323 311.016C395.619 308.424 396.969 304.752 398.373 300L364.839 215.112H387.357L410.199 277.806L430.287 215.112H451.023L415.383 316.848C414.087 320.628 412.089 324.03 409.389 327.054C406.797 330.186 403.503 332.616 399.507 334.344C395.619 336.18 391.245 337.098 386.385 337.098C384.657 337.098 382.929 336.936 381.201 336.612C379.473 336.396 377.583 335.964 375.531 335.316V316.524ZM492.027 301.62C484.791 301.62 477.879 300.432 471.291 298.056C464.703 295.68 459.033 292.17 454.281 287.526L462.057 273.432C467.133 277.536 472.101 280.56 476.961 282.504C481.929 284.448 486.681 285.42 491.217 285.42C495.429 285.42 498.777 284.664 501.261 283.152C503.853 281.64 505.149 279.372 505.149 276.348C505.149 274.296 504.447 272.73 503.043 271.65C501.639 270.462 499.587 269.436 496.887 268.572C494.295 267.708 491.109 266.736 487.329 265.656C481.065 263.604 475.827 261.606 471.615 259.662C467.403 257.718 464.217 255.288 462.057 252.372C460.005 249.348 458.979 245.514 458.979 240.87C458.979 235.254 460.383 230.448 463.191 226.452C466.107 222.348 470.103 219.162 475.179 216.894C480.363 214.626 486.411 213.492 493.323 213.492C499.371 213.492 505.095 214.464 510.495 216.408C515.895 218.244 520.809 221.268 525.237 225.48L516.489 239.25C512.169 235.902 508.065 233.472 504.177 231.96C500.289 230.34 496.347 229.53 492.351 229.53C490.083 229.53 487.923 229.8 485.871 230.34C483.927 230.88 482.307 231.798 481.011 233.094C479.823 234.282 479.229 236.01 479.229 238.278C479.229 240.33 479.769 241.95 480.849 243.138C482.037 244.218 483.765 245.19 486.033 246.054C488.409 246.918 491.271 247.89 494.619 248.97C501.423 250.914 507.147 252.912 511.791 254.964C516.543 257.016 520.107 259.554 522.483 262.578C524.859 265.494 526.047 269.544 526.047 274.728C526.047 283.152 522.969 289.74 516.813 294.492C510.657 299.244 502.395 301.62 492.027 301.62ZM41.148 463.62C33.912 463.62 27 462.432 20.412 460.056C13.824 457.68 8.154 454.17 3.402 449.526L11.178 435.432C16.254 439.536 21.222 442.56 26.082 444.504C31.05 446.448 35.802 447.42 40.338 447.42C44.55 447.42 47.898 446.664 50.382 445.152C52.974 443.64 54.27 441.372 54.27 438.348C54.27 436.296 53.568 434.73 52.164 433.65C50.76 432.462 48.708 431.436 46.008 430.572C43.416 429.708 40.23 428.736 36.45 427.656C30.186 425.604 24.948 423.606 20.736 421.662C16.524 419.718 13.338 417.288 11.178 414.372C9.126 411.348 8.1 407.514 8.1 402.87C8.1 397.254 9.504 392.448 12.312 388.452C15.228 384.348 19.224 381.162 24.3 378.894C29.484 376.626 35.532 375.492 42.444 375.492C48.492 375.492 54.216 376.464 59.616 378.408C65.016 380.244 69.93 383.268 74.358 387.48L65.61 401.25C61.29 397.902 57.186 395.472 53.298 393.96C49.41 392.34 45.468 391.53 41.472 391.53C39.204 391.53 37.044 391.8 34.992 392.34C33.048 392.88 31.428 393.798 30.132 395.094C28.944 396.282 28.35 398.01 28.35 400.278C28.35 402.33 28.89 403.95 29.97 405.138C31.158 406.218 32.886 407.19 35.154 408.054C37.53 408.918 40.392 409.89 43.74 410.97C50.544 412.914 56.268 414.912 60.912 416.964C65.664 419.016 69.228 421.554 71.604 424.578C73.98 427.494 75.168 431.544 75.168 436.728C75.168 445.152 72.09 451.74 65.934 456.492C59.778 461.244 51.516 463.62 41.148 463.62ZM89.1228 430.248V377.112H110.831V425.55C110.831 432.03 112.019 436.944 114.395 440.292C116.771 443.532 120.281 445.152 124.925 445.152C127.733 445.152 130.487 444.612 133.187 443.532C135.995 442.344 138.533 440.616 140.801 438.348C143.177 436.08 145.175 433.218 146.795 429.762V377.112H168.503V437.7C168.503 439.968 168.881 441.588 169.637 442.56C170.501 443.532 171.851 444.126 173.687 444.342V462C171.527 462.324 169.691 462.54 168.179 462.648C166.775 462.864 165.479 462.972 164.291 462.972C160.403 462.972 157.217 462.108 154.733 460.38C152.357 458.544 150.953 456.06 150.521 452.928L150.035 446.124C146.255 451.848 141.395 456.222 135.455 459.246C129.515 462.162 122.981 463.62 115.853 463.62C107.105 463.62 100.463 460.812 95.9268 455.196C91.3908 449.472 89.1228 441.156 89.1228 430.248ZM240.943 463.62C234.355 463.62 228.523 462.162 223.447 459.246C218.479 456.222 214.591 452.172 211.783 447.096V496.506H190.075V377.112H209.029V391.692C212.269 386.724 216.373 382.836 221.341 380.028C226.309 377.112 231.979 375.654 238.351 375.654C244.075 375.654 249.313 376.788 254.065 379.056C258.925 381.324 263.137 384.51 266.701 388.614C270.265 392.61 273.019 397.254 274.963 402.546C277.015 407.73 278.041 413.346 278.041 419.394C278.041 427.602 276.421 435.054 273.181 441.75C270.049 448.446 265.675 453.792 260.059 457.788C254.551 461.676 248.179 463.62 240.943 463.62ZM233.653 445.152C237.001 445.152 240.025 444.45 242.725 443.046C245.425 441.642 247.747 439.752 249.691 437.376C251.743 434.892 253.255 432.138 254.227 429.114C255.307 425.982 255.847 422.742 255.847 419.394C255.847 415.83 255.253 412.536 254.065 409.512C252.985 406.488 251.365 403.842 249.205 401.574C247.045 399.198 244.507 397.362 241.591 396.066C238.783 394.77 235.705 394.122 232.357 394.122C230.305 394.122 228.199 394.5 226.039 395.256C223.987 395.904 221.989 396.876 220.045 398.172C218.101 399.468 216.373 400.98 214.861 402.708C213.457 404.436 212.431 406.326 211.783 408.378V428.304C213.079 431.436 214.807 434.298 216.967 436.89C219.235 439.482 221.827 441.534 224.743 443.046C227.659 444.45 230.629 445.152 233.653 445.152ZM343.617 463.62C337.029 463.62 331.197 462.162 326.121 459.246C321.153 456.222 317.265 452.172 314.457 447.096V496.506H292.749V377.112H311.703V391.692C314.943 386.724 319.047 382.836 324.015 380.028C328.983 377.112 334.653 375.654 341.025 375.654C346.749 375.654 351.987 376.788 356.739 379.056C361.599 381.324 365.811 384.51 369.375 388.614C372.939 392.61 375.693 397.254 377.637 402.546C379.689 407.73 380.715 413.346 380.715 419.394C380.715 427.602 379.095 435.054 375.855 441.75C372.723 448.446 368.349 453.792 362.733 457.788C357.225 461.676 350.853 463.62 343.617 463.62ZM336.327 445.152C339.675 445.152 342.699 444.45 345.399 443.046C348.099 441.642 350.421 439.752 352.365 437.376C354.417 434.892 355.929 432.138 356.901 429.114C357.981 425.982 358.521 422.742 358.521 419.394C358.521 415.83 357.927 412.536 356.739 409.512C355.659 406.488 354.039 403.842 351.879 401.574C349.719 399.198 347.181 397.362 344.265 396.066C341.457 394.77 338.379 394.122 335.031 394.122C332.979 394.122 330.873 394.5 328.713 395.256C326.661 395.904 324.663 396.876 322.719 398.172C320.775 399.468 319.047 400.98 317.535 402.708C316.131 404.436 315.105 406.326 314.457 408.378V428.304C315.753 431.436 317.481 434.298 319.641 436.89C321.909 439.482 324.501 441.534 327.417 443.046C330.333 444.45 333.303 445.152 336.327 445.152ZM434.627 463.62C427.715 463.62 421.505 462.486 415.997 460.218C410.489 457.842 405.791 454.602 401.903 450.498C398.123 446.394 395.207 441.696 393.155 436.404C391.103 431.112 390.077 425.55 390.077 419.718C390.077 413.778 391.103 408.162 393.155 402.87C395.207 397.578 398.123 392.88 401.903 388.776C405.791 384.672 410.489 381.486 415.997 379.218C421.505 376.842 427.715 375.654 434.627 375.654C441.539 375.654 447.695 376.842 453.095 379.218C458.603 381.486 463.301 384.672 467.189 388.776C471.077 392.88 473.993 397.578 475.937 402.87C477.989 408.162 479.015 413.778 479.015 419.718C479.015 425.55 477.989 431.112 475.937 436.404C473.993 441.696 471.077 446.394 467.189 450.498C463.409 454.602 458.765 457.842 453.257 460.218C447.749 462.486 441.539 463.62 434.627 463.62ZM412.433 419.718C412.433 424.686 413.405 429.114 415.349 433.002C417.293 436.782 419.939 439.752 423.287 441.912C426.635 444.072 430.415 445.152 434.627 445.152C438.731 445.152 442.457 444.072 445.805 441.912C449.153 439.644 451.799 436.62 453.743 432.84C455.795 428.952 456.821 424.524 456.821 419.556C456.821 414.696 455.795 410.322 453.743 406.434C451.799 402.546 449.153 399.522 445.805 397.362C442.457 395.202 438.731 394.122 434.627 394.122C430.415 394.122 426.635 395.256 423.287 397.524C419.939 399.684 417.293 402.708 415.349 406.596C413.405 410.376 412.433 414.75 412.433 419.718ZM544.211 395.904C537.623 395.904 531.737 397.2 526.553 399.792C521.369 402.276 517.643 405.894 515.375 410.646V462H493.667V377.112H513.593V395.256C516.617 389.424 520.451 384.834 525.095 381.486C529.739 378.138 534.653 376.302 539.837 375.978C541.025 375.978 541.943 375.978 542.591 375.978C543.239 375.978 543.779 376.032 544.211 376.14V395.904ZM607.184 457.626C605.348 458.382 603.134 459.246 600.542 460.218C597.95 461.19 595.142 461.946 592.118 462.486C589.202 463.134 586.232 463.458 583.208 463.458C579.212 463.458 575.54 462.756 572.192 461.352C568.844 459.948 566.144 457.734 564.092 454.71C562.148 451.578 561.176 447.528 561.176 442.56V393.798H549.998V377.112H561.176V349.572H582.884V377.112H600.704V393.798H582.884V435.27C582.992 438.186 583.802 440.292 585.314 441.588C586.826 442.884 588.716 443.532 590.984 443.532C593.252 443.532 595.466 443.154 597.626 442.398C599.786 441.642 601.514 440.994 602.81 440.454L607.184 457.626Z" fill="white"/>
</svg>
