<svg width="1920" height="1779" viewBox="0 0 1920 1779" fill="none" xmlns="http://www.w3.org/2000/svg">
<g clip-path="url(#clip0_289_146108)">
<g opacity="0.43">
<path d="M1623.26 -74.5677L1642.29 -12.2307L1645.59 -1.41625L1656.09 33.0007L1679.12 108.44L1680.23 112.094L1533.78 272.176L1533.59 272.386L1533.67 272.659L1544.11 306.855L1544.36 307.693L1544.96 307.046L1691.01 147.401L1714.9 225.656L1502.17 458.203L1486.17 405.794L1478.19 379.654L1467.76 345.479L1449.35 285.143L1443.62 266.365L1590.07 106.284L1590.26 106.073L1590.18 105.8L1579.67 71.3833L1579.42 70.5453L1578.83 71.1918L1432.78 230.857L1410.53 157.959L1623.26 -74.5677Z" stroke="#43C4FF"/>
<path d="M1907.55 187.01L1841.62 -29.0117L1935.68 -9.02873L2030.22 291.306L1719.84 223.962L1628.51 -75.2459L1723 -54.3703L1789.06 162.083L1789.15 162.364L1789.44 162.426L1906.96 187.645L1907.8 187.823L1907.55 187.01Z" stroke="#43C4FF"/>
<path d="M1786.92 431.363L1787.19 431.415L1787.38 431.215L1933.58 276.159L2028.47 296.742L1814.45 516.653L1814.38 516.425L1814.08 516.37L1592.77 476L1592.48 475.948L1592.43 476.005L1507.85 460.301L1507.95 460.208L1507.3 460.109L1540.09 424.926L1540.1 424.922L1718.41 229.871L1743.68 312.656L1657.46 405.79L1656.85 406.451L1657.73 406.62L1786.92 431.363Z" stroke="#43C4FF"/>
</g>
<g opacity="0.43">
<path d="M296.208 1142.96L274.29 1196.08L270.479 1205.32L258.353 1234.71L231.772 1299.13L230.495 1302.22L46.5126 1331.76L46.2364 1331.81L46.1297 1332.07L34.0811 1361.27L33.7402 1362.09L34.6225 1361.95L217.999 1332.51L190.482 1399.19L-76.6467 1442.1L-58.2263 1397.46L-49.016 1375.14L-36.9745 1345.95L-15.7155 1294.43L-9.10957 1278.42L174.873 1248.88L175.149 1248.84L175.256 1248.58L187.382 1219.19L187.723 1218.36L186.841 1218.5L3.45761 1247.96L29.087 1185.85L296.208 1142.96Z" stroke="#43C4FF"/>
<path d="M337.807 1478.44L413.877 1294.08L464.202 1359.26L360.316 1617.17L194.783 1400.8L300.153 1145.43L350.263 1211.46L274.007 1396.27L273.897 1396.53L274.073 1396.76L336.948 1478.55L337.476 1479.24L337.807 1478.44Z" stroke="#43C4FF"/>
<path d="M124.039 1580L124.218 1580.22L124.5 1580.18L305.528 1553.95L356.081 1620.03L95.1344 1653.55L95.1824 1653.43L94.9927 1653.2L-27.3279 1504.08L-27.5216 1503.84L-27.5845 1503.85L-74.084 1446.79L-73.9636 1446.78L-74.3407 1446.35L-33.5976 1440.2L-33.5927 1440.2L190.397 1404.15L161.285 1474.71L53.5971 1491.34L52.7401 1491.47L53.284 1492.14L124.039 1580Z" stroke="#43C4FF"/>
</g>
<g opacity="0.43">
<path d="M1625 1368.32L1632.66 1401.8L1634 1407.68L1638.29 1426.39L1647.67 1467.4L1648.1 1469.27L1567.84 1547.95L1567.64 1548.14L1567.7 1548.42L1571.96 1567.01L1572.16 1567.88L1572.79 1567.25L1652.61 1489L1662.22 1531.01L1545.92 1645.04L1539.49 1616.96L1536.24 1602.75L1531.99 1584.17L1524.49 1551.37L1522.18 1541.28L1602.43 1462.6L1602.63 1462.41L1602.57 1462.13L1598.29 1443.42L1598.09 1442.55L1597.45 1443.18L1517.64 1521.44L1508.69 1482.34L1625 1368.32Z" stroke="#43C4FF"/>
<path d="M1762.87 1518.66L1736.09 1401.61L1783.2 1416.03L1821.91 1578.9L1665.29 1530.2L1628.19 1368.06L1675.48 1382.97L1702.38 1500.52L1702.44 1500.8L1702.72 1500.89L1762.24 1519.25L1763.07 1519.5L1762.87 1518.66Z" stroke="#43C4FF"/>
<path d="M1692.75 1643.53L1693.02 1643.61L1693.23 1643.41L1773.18 1567.39L1820.71 1582.17L1704.23 1689.39L1704.09 1689.35L1591.78 1658.56L1591.49 1658.48L1591.46 1658.51L1549.12 1646.76L1549.19 1646.7L1548.82 1646.61L1566.49 1629.62L1566.49 1629.61L1664.02 1533.93L1674.19 1578.4L1627.02 1624.09L1626.39 1624.7L1627.23 1624.93L1692.75 1643.53Z" stroke="#43C4FF"/>
</g>
<g opacity="0.43">
<path d="M345.38 437.747L340.265 464.392L339.361 469.103L336.482 484.097L330.173 516.962L329.898 518.398L246.316 549.943L246.054 550.042L246.001 550.317L243.142 565.214L242.973 566.092L243.809 565.776L326.817 534.447L320.401 567.871L199.42 613.538L203.705 591.219L205.891 579.832L208.749 564.943L213.795 538.658L215.335 530.633L298.917 499.088L299.179 498.989L299.232 498.714L302.11 483.721L302.278 482.843L301.442 483.159L218.433 514.496L224.401 483.406L345.38 437.747Z" stroke="#43C4FF"/>
<path d="M397.82 591.222L415.791 497.608L445.285 523.044L421.327 653.783L323.09 568.306L347.986 438.617L377.46 464.464L359.389 558.602L359.334 558.885L359.552 559.074L397.001 591.506L397.656 592.073L397.82 591.222Z" stroke="#43C4FF"/>
<path d="M306.596 659.721L306.816 659.903L307.084 659.806L389.587 630.104L419.272 655.931L300.348 696.59L300.301 696.551L228.407 638.158L228.169 637.966L228.142 637.978L201.279 616.016L201.355 615.994L201.106 615.804L219.238 609.157L219.243 609.155L320.723 570.811L313.928 606.207L265 624.338L264.187 624.639L264.855 625.192L306.596 659.721Z" stroke="#43C4FF"/>
</g>
</g>
<defs>
<clipPath id="clip0_289_146108">
<rect width="1920" height="1779" fill="white"/>
</clipPath>
</defs>
</svg>
