<svg width="1920" height="699" viewBox="0 0 1920 699" fill="none" xmlns="http://www.w3.org/2000/svg">
<g opacity="0.43">
<path d="M955.544 78.8761V134.934V144.68V175.697V243.684V246.938L794.559 342.04L794.313 342.185V342.47V373.288V374.164L795.067 373.718L955.544 278.917V349.281L721.792 487.387V440.276V416.719V385.92V331.545V314.661L882.777 219.559L883.023 219.414V219.128V188.111V187.235L882.268 187.681L721.792 282.5V216.964L955.544 78.8761Z" stroke="#43C4FF"/>
<path d="M1124.23 365.936V171.372L1196.61 211.438L1198.98 482.668L960.182 349.127V79.6355L1032.68 120.542V315.572V315.866L1032.94 316.009L1123.49 366.373L1124.23 366.786V365.936Z" stroke="#43C4FF"/>
<path d="M963.197 537.092L963.44 537.22L963.678 537.084L1123.19 446.061L1196.1 486.827L964.531 614.154V614.024L964.26 613.884L791.97 524.917L791.709 524.782L791.655 524.818L726.032 490.669L726.142 490.614L725.62 490.364L761.396 469.676L761.401 469.674L957.383 353.802V428.248L862.901 483.313L862.122 483.767L862.919 484.187L963.197 537.092Z" stroke="#43C4FF"/>
</g>
</svg>
