<svg width="49" height="56" viewBox="0 0 49 56" fill="none" xmlns="http://www.w3.org/2000/svg">
<path d="M48.3654 13.898L24.1247 0L0 14.103L0.118031 42.102L24.3587 56L48.4834 41.897L48.3654 13.898Z" fill="url(#paint0_linear_125_11855)"/>
<path d="M5.47375 17.7617V23.058L18.2148 15.494V17.9561L5.47375 25.5202V26.8855V31.2032V33.6485V35.521V39.3315L24.0257 28.3163V22.6353L11.2826 30.1993V27.752L24.0257 20.1879V19.9069V14.507V12.0448V11.2692V6.74854L5.47375 17.7617Z" fill="white"/>
<path d="M42.7904 17.3221L36.99 14.097V30.3177L29.8344 26.0697V10.1026L24.0256 6.80981V28.4071H24.249V28.4346L36.99 35.9986V35.6647L36.9858 35.6626L24.3227 43.0301L16.3957 38.8285L24.0256 34.3607L24.034 28.3606L24.0256 28.3543L8.33585 37.6767L5.44409 39.3569L5.47781 39.3759L5.4736 39.378L10.7492 42.1361L10.7534 42.134L24.3691 49.1992V49.252L43.0391 38.9892L42.978 38.9553" fill="url(#paint1_linear_125_11855)"/>
<defs>
<linearGradient id="paint0_linear_125_11855" x1="24.2417" y1="0.0963943" x2="24.2417" y2="53.8994" gradientUnits="userSpaceOnUse">
<stop offset="1.33195e-07" stop-color="#005BDD"/>
<stop offset="1" stop-color="#1572FF"/>
</linearGradient>
<linearGradient id="paint1_linear_125_11855" x1="24.2416" y1="48.9654" x2="24.2416" y2="9.22952" gradientUnits="userSpaceOnUse">
<stop offset="5.48762e-07" stop-color="#AACEFF"/>
<stop offset="1" stop-color="#00BDFF"/>
</linearGradient>
</defs>
</svg>
